<svg width="52" height="37" viewBox="0 0 52 37" fill="none" xmlns="http://www.w3.org/2000/svg">
<g id="Vector">
<path id="Vector_2" fill-rule="evenodd" clip-rule="evenodd" d="M51.3166 18.5C51.3166 17.8938 51.0597 17.3125 50.6023 16.8839C50.145 16.4553 49.5246 16.2145 48.8778 16.2145H3.35397C2.70717 16.2145 2.08685 16.4553 1.62949 16.8839C1.17213 17.3125 0.915192 17.8938 0.915192 18.5C0.915192 19.1061 1.17213 19.6875 1.62949 20.1161C2.08685 20.5447 2.70717 20.7855 3.35397 20.7855H48.8778C49.5246 20.7855 50.145 20.5447 50.6023 20.1161C51.0597 19.6875 51.3166 19.1061 51.3166 18.5ZM51.3166 3.26329C51.3166 2.65713 51.0597 2.07581 50.6023 1.64719C50.145 1.21858 49.5246 0.977783 48.8778 0.977783H3.35397C2.70717 0.977783 2.08685 1.21858 1.62949 1.64719C1.17213 2.07581 0.915192 2.65713 0.915192 3.26329C0.915192 3.86944 1.17213 4.45077 1.62949 4.87939C2.08685 5.308 2.70717 5.54879 3.35397 5.54879H48.8778C49.5246 5.54879 50.145 5.308 50.6023 4.87939C51.0597 4.45077 51.3166 3.86944 51.3166 3.26329ZM51.3166 33.7367C51.3166 33.1305 51.0597 32.5492 50.6023 32.1206C50.145 31.692 49.5246 31.4512 48.8778 31.4512H3.35397C2.70717 31.4512 2.08685 31.692 1.62949 32.1206C1.17213 32.5492 0.915192 33.1305 0.915192 33.7367C0.915192 34.3428 1.17213 34.9242 1.62949 35.3528C2.08685 35.7814 2.70717 36.0222 3.35397 36.0222H48.8778C49.5246 36.0222 50.145 35.7814 50.6023 35.3528C51.0597 34.9242 51.3166 34.3428 51.3166 33.7367Z" fill="black"/>
</g>
</svg>
